<svg id="图层_1" data-name="图层 1" xmlns="http://www.w3.org/2000/svg" viewBox="0 0 7650.34202 2159.53309"><defs><style>.cls-1{fill:#fff;}</style></defs><path class="cls-1" d="M1655.7921,1618.91953c-27.74626-41.12171-66.14441-73.52168-110.85232-95.013-147.831-71.06355-335.093-115.0675-539.36861-118.36231-295.24075-4.76911-557.27659,76.78187-717.93774,205.32578a2.01762,2.01762,0,0,1-2.84473-2.84185L1472.78854,79.26845a5.58586,5.58586,0,0,0-2.32542-8.59426A1078.64415,1078.64415,0,0,0,1060.46358-4.26119C490.66555,2.73812,24.93691,450.67418-3.923,1019.78554c-12.92248,254.823,63.10637,492.00925,199.83828,683.11424-.0404.05482-.08944.10387-.12983.1558,1.00979,1.41371,2.12922,2.7351,3.14767,4.143,1.4166,1.96189,2.74087,3.993,4.17189,5.94575l.17311-.22743c192.93994,263.23893,502.22549,436.45614,853.72044,442.1283,238.34894,3.84587,459.86029-69.89267,640.57595-197.82446a58.56278,58.56278,0,0,0,23.79075-35.73806,373.8096,373.8096,0,0,0,7.51-68.67466C1730.21971,1769.56928,1703.92467,1690.25716,1655.7921,1618.91953Z" transform="translate(5.34202 4.34452)"/><path class="cls-1" d="M1601.99892,129.79043l207.4002,1738.65213c212.08275-196.35881,345.47946-476.65172,347.049-788.479C2158.50229,672.04415,1934.478,315.77721,1601.99892,129.79043Z" transform="translate(5.34202 4.34452)"/><path class="cls-1" d="M2659.12942,2008.33945c79.63815-1.89841,119.75295-31.75081,122.54-91.25077-.93478-32.62213-17.2646-57.867-49.92423-76.54529-19.13416-10.51052-44.67907-19.33612-75.80381-26.15079-17.06552-3.74777-68.98626-15.13825-65.12019-49.65879,1.67915-16.9155,12.53011-37.51,54.58659-38.96652h.01443c35.389,0,53.57391,14.50642,62.6938,31.80564a22.126,22.126,0,0,0,23.55994,11.6761l12.16081-2.236c14.86128-2.72644,23.534-19.32169,16.08457-32.46633-20.13529-35.52744-58.77868-52.16308-117.015-50.74071-70.86448,3.79105-108.123,30.36884-113.67687,81.25381-1.80609,46.17884,24.90442,74.84018,81.68947,87.04715.28563.06347.57126.1154.85977.16156,18.91777,3.015,41.53428,9.1949,66.80222,18.28593,27.91648,11.63283,41.266,28.531,40.0744,50.38008-1.65606,21.44226-13.5197,47.068-60.68575,48.45858h-.00865c-38.88862,0-65.16347-17.12948-77.32716-49.8896-3.7824-10.1845-14.94207-15.62873-25.58241-13.45623l-10.60284,2.16384c-14.1804,2.89378-22.19817,18.33209-16.11055,31.4623C2550.07742,1986.5654,2593.08888,2009.05785,2659.12942,2008.33945Z" transform="translate(5.34202 4.34452)"/><path class="cls-1" d="M3133.3593,1686.66469h16.803a23.05793,23.05793,0,0,1,23.05793,23.05793v14.11692a23.05793,23.05793,0,0,1-23.05793,23.05793h-16.80009a23.05793,23.05793,0,0,1-23.05793-23.05793v-14.11981A23.055,23.055,0,0,1,3133.3593,1686.66469Z"/><path class="cls-1" d="M3131.32817,1766.28552h20.86812a19.55827,19.55827,0,0,1,19.55827,19.55827v203.67549a19.55827,19.55827,0,0,1-19.55827,19.55827h-20.871a19.55539,19.55539,0,0,1-19.55539-19.55539V1785.8438A19.55827,19.55827,0,0,1,3131.32817,1766.28552Z"/><path class="cls-1" d="M3692.54419,1930.18426l22.25875,59.71635a19.10233,19.10233,0,0,0,17.89932,12.432H3747.702a19.10321,19.10321,0,0,0,17.89932-25.77621l-95.31015-255.73422a49.95615,49.95615,0,0,0-46.80829-32.50672h-9.22664a49.95616,49.95616,0,0,0-46.80829,32.50672l-95.31592,255.73422a19.10322,19.10322,0,0,0,17.89933,25.77621h15.00554a19.10612,19.10612,0,0,0,17.90221-12.432l22.25586-59.71635ZM3624.51,1747.67406l52.945,142.05785-117.18807.00865,52.95361-142.0665A6.02487,6.02487,0,0,1,3624.51,1747.67406Z" transform="translate(5.34202 4.34452)"/><path class="cls-1" d="M4108.82176,1683.806c-86.42107,0-147.04623,60.54726-147.04623,165.75916,0,103.18077,70.524,158.78293,152.9117,158.78293,70.524,0,102.51431-27.63951,123.7171-73.38319,6.3617-13.72166-.10963-28.62334-14.54681-33.13328l-6.77427-2.11431c-12.50991-3.91223-25.98634,3.18518-30.33134,15.55083-13.38121,38.075-36.45645,48.09794-73.112,48.09794-50.60224,0-89.41007-40.11479-88.859-113.94806.54817-73.48128,41.71316-119.13264,84.74193-119.13264,33.329,0,57.792,13.72743,72.07911,37.30469,5.25959,8.68423,15.0142,13.54566,24.9073,11.28084l6.28669-1.44256c16.71065-3.82857,24.21775-23.55706,14.10538-37.40278C4203.03268,1707.33711,4166.32233,1683.806,4108.82176,1683.806Z" transform="translate(5.34202 4.34452)"/><path class="cls-1" d="M4702.91545,1688.31547h-238.3201a18.307,18.307,0,0,0-18.30612,18.30613v8.35244a18.307,18.307,0,0,0,18.30612,18.30612h89.92074V1981.075a21.25847,21.25847,0,0,0,21.25761,21.25761h17.46944a21.25663,21.25663,0,0,0,21.25761-21.25761V1733.28016h88.4147a18.307,18.307,0,0,0,18.30613-18.30612v-8.35244A18.307,18.307,0,0,0,4702.91545,1688.31547Z" transform="translate(5.34202 4.34452)"/><path class="cls-1" d="M5556.10791,1683.806c-86.42108,0-147.04624,60.54726-147.04624,165.75916,0,103.18077,70.524,158.78293,152.9117,158.78293,70.67117,0,102.64991-27.75492,123.85271-73.6717,6.26649-13.57213-.10964-28.29155-14.37947-32.74907l-7.334-2.29079c-12.36854-3.86368-25.71514,3.14478-29.988,15.38012-13.36679,38.28323-36.46511,48.34943-73.19854,48.34943-50.60223,0-89.41007-40.11479-88.859-113.94806.54818-73.48128,41.71316-119.13264,84.74193-119.13264,33.329,0,57.792,13.72743,72.07912,37.30469,5.25958,8.68423,15.0142,13.54566,24.90441,11.28084l6.69349-1.53489a23.708,23.708,0,0,0,13.9467-36.97289C5650.56983,1707.49867,5613.80755,1683.806,5556.10791,1683.806Z" transform="translate(5.34202 4.34452)"/><path class="cls-1" d="M6513.80542,1683.82044c-100.18313-1.01556-157.11822,64.72443-156.50657,162.98656.59145,94.84853,57.07069,161.57573,156.98838,161.54111,98.87905-.03174,155.49389-68.77565,155.49389-161.45744C6669.78112,1749.24068,6612.02666,1684.81581,6513.80542,1683.82044Zm-2.37158,278.09156c-56.26,0-93.16361-41.88338-92.65583-114.8136.51932-74.49685,34.69364-116.78992,93.54734-116.78992l.47027-.02646.46739.02646c58.17858,0,90.52661,42.41136,90.52661,116.29944,0,0,.00577.27121.00577.36353C6603.64825,1940.64,6555.29065,1961.912,6511.43384,1961.912Z" transform="translate(5.34202 4.34452)"/><path class="cls-1" d="M5916.9247,1711.12478v213.34693a78.61265,78.61265,0,0,0,78.61392,78.61393h133.95354a15.76819,15.76819,0,0,0,15.76721-15.76771v-10.4153a15.76613,15.76613,0,0,0-15.76721-15.76673H6011.96653a36.5642,36.5642,0,0,1-36.5632-36.56609v-213.445a22.05748,22.05748,0,0,0-22.05679-22.05629h-14.365A22.05748,22.05748,0,0,0,5916.9247,1711.12478Z" transform="translate(5.34202 4.34452)"/><path class="cls-1" d="M7612.88854,1843.35927c0-102.9038-58.721-153.30984-173.60959-154.29078h-57.94488a37.36394,37.36394,0,0,0-37.36527,37.36527v239.2866a37.36579,37.36579,0,0,0,37.36527,37.36528l62.79766.00288C7542.06735,2003.08275,7612.88854,1952.10545,7612.88854,1843.35927Zm-208.93508,104.9806V1746.823a12.79387,12.79387,0,0,1,12.79265-12.79265h21.223c71.08086,1.06749,109.78483,39.20309,111.91982,110.28972.00577,76.50778-38.74147,116.813-112.04676,116.813h-21.09605A12.794,12.794,0,0,1,7403.95346,1948.33987Z" transform="translate(5.34202 4.34452)"/><path class="cls-1" d="M3361.93756,1396.27094H3014.16731c-17.02513,0-29.69661-4.99365-38.75014-15.27335l-.34044-.35488c-10.76152-10.44992-15.98937-22.80165-15.98937-37.7663v-228.753a38.74893,38.74893,0,0,0-38.70109-38.704H2840.099a38.74893,38.74893,0,0,0-38.70109,38.704v248.00834a134.1875,134.1875,0,0,0,11.88672,56.058,152.13575,152.13575,0,0,0,31.48827,45.37727c27.95976,27.59911,62.789,41.592,103.51257,41.592h413.65211a30.91874,30.91874,0,0,0,30.88527-30.8824v-47.117A30.91854,30.91854,0,0,0,3361.93756,1396.27094Z" transform="translate(5.34202 4.34452)"/><path class="cls-1" d="M2623.25288,994.17427a150.58939,150.58939,0,0,0,60.84443,12.4315h799.55507a150.60936,150.60936,0,0,0,60.84443-12.4315,164.92583,164.92583,0,0,0,49.02119-32.7606,160.28392,160.28392,0,0,0,33.66654-47.79212,140.72065,140.72065,0,0,0,12.79265-59.42206V545.82224c0-40.98558-10.04024-77.745-35.90252-105.8288-28.3204-30.75544-72.20894-46.58325-120.42229-46.58325h-804.832c-37.69417,0-74.65553,14.78916-104.58871,43.9549l-4.33923,4.2296v1.41082a151.1334,151.1334,0,0,0-28.81953,43.67505,147.08687,147.08687,0,0,0-12.02809,59.14168V854.19949c0,41.967,15.20173,78.03978,45.18685,107.21418A164.61077,164.61077,0,0,0,2623.25288,994.17427Zm384.9249-93.46943H2732.93673c-13.15329,0-23.99271-4.35943-33.13856-13.33217-9.267-9.05641-13.58029-19.33035-13.58029-32.33938V754.34238h321.9599Zm-308.40847-386.9041c10.02005-9.74307,20.871-14.48333,33.16742-14.48333h275.24105V648.44093h-321.9599V545.82224C2686.21788,531.72315,2690.41285,521.64829,2699.76931,513.80074ZM3436.094,900.70484H3165.3537V754.34238H3482.807V855.26987c0,12.92248-4.30749,23.13583-13.56009,32.149C3460.08379,896.357,3449.24148,900.70484,3436.094,900.70484ZM3482.807,545.99875V648.44093H3165.3537V499.31741H3436.094c12.44355,0,23.13006,4.7518,33.96948,15.26809C3478.75632,521.87044,3482.807,531.85009,3482.807,545.99875Z" transform="translate(5.34202 4.34452)"/><path class="cls-1" d="M2649.12958,1075.41943h-82.99643a37.08936,37.08936,0,0,0-37.0883,37.09119v362.15259a30.49387,30.49387,0,0,0,30.4929,30.49579h0c69.96431,0,126.68013-72.42006,126.68013-179.79531V1112.51062A37.09121,37.09121,0,0,0,2649.12958,1075.41943Z" transform="translate(5.34202 4.34452)"/><path class="cls-1" d="M3520.20116,1075.41943h82.99932a37.08875,37.08875,0,0,1,37.08541,37.09119v362.15259a30.49387,30.49387,0,0,1-30.4929,30.49579h0c-69.96143,0-126.67724-72.42006-126.67724-179.79531V1112.51062A37.08875,37.08875,0,0,1,3520.20116,1075.41943Z" transform="translate(5.34202 4.34452)"/><path class="cls-1" d="M3172.70954,1079.76395h75.10035a41.29431,41.29431,0,0,1,41.29431,41.29431v173.1999a41.2977,41.2977,0,0,1-41.2977,41.2977h-75.09407a41.2977,41.2977,0,0,1-41.2977-41.2977v-173.1994A41.29481,41.29481,0,0,1,3172.70954,1079.76395Z"/><path class="cls-1" d="M3886.28908,751.20625h76.63473a40.31793,40.31793,0,0,0,40.27059-40.2706v-87.278c0-8.6121,3.0842-15.62873,9.71134-22.0741,5.802-5.64331,13.0927-8.26878,22.94829-8.26878h760.453c9.8354,0,17.12611,2.62547,22.92521,8.263,6.6358,6.46268,9.72577,13.47931,9.72577,22.07987v87.278a40.31546,40.31546,0,0,0,40.2677,40.2706h76.63473a40.31609,40.31609,0,0,0,40.2706-40.2706v-87.278a127.12425,127.12425,0,0,0-11.51743-53.15557v-.00865a146.61236,146.61236,0,0,0-31.18244-44.12224c-27.45487-26.67876-61.02043-40.20424-99.76768-40.20424H4497.86086V428.87994a35.51339,35.51339,0,0,0-35.46974-35.46975h-86.23354a35.51339,35.51339,0,0,0-35.46975,35.46975V486.167H3988.50045c-38.779,0-72.35031,13.53125-99.77055,40.21289a145.67348,145.67348,0,0,0-31.17668,44.11018,126.71785,126.71785,0,0,0-11.529,53.16763v87.278A40.313,40.313,0,0,0,3886.28908,751.20625Z" transform="translate(5.34202 4.34452)"/><path class="cls-1" d="M4957.877,831.78206H4828.958V797.72262a36.20711,36.20711,0,0,0-36.16506-36.16454H4707.95a36.20525,36.20525,0,0,0-36.16505,36.16454v34.05944H4160.36455V797.72262a36.20464,36.20464,0,0,0-36.16218-36.16454h-84.84291a36.20526,36.20526,0,0,0-36.16506,36.16454v34.05944H3875.29963a29.31127,29.31127,0,0,0-29.27537,29.27826v47.3478a29.3088,29.3088,0,0,0,29.27537,29.27538H4003.1944v84.81932c0,92.30724,67.97935,120.20641,135.46823,155.529l145.33247,76.21927-199.96523,104.88826c-5.76448,3.01835-11.41644,6.13717-17.01647,9.22137-26.0325,14.35351-50.61954,27.91021-79.89781,27.91021H3885.65147a31.44618,31.44618,0,0,0-31.40749,31.41087v45.7206a31.44471,31.44471,0,0,0,31.40749,31.407h110.5667a335.28627,335.28627,0,0,0,155.266-38.28225l268.58218-141.01343,265.72014,139.26216a351.59315,351.59315,0,0,0,162.6115,40.03352h107.2488a30.52061,30.52061,0,0,0,30.48425-30.4924v-47.55554a30.52085,30.52085,0,0,0-30.48425-30.49052h-90.01594c-39.57528,0-67.31577-14.73384-102.43064-33.38906L4556.19523,1254.2511l197.63116-103.6597c46.24281-24.23506,75.13158-67.2321,75.13158-139.418V937.6835h128.919a28.28745,28.28745,0,0,0,28.25405-28.254V860.039A28.28991,28.28991,0,0,0,4957.877,831.78206Zm-317.96978,235.78983-219.81489,115.2983-227.10561-119.124c-15.09786-7.92256-32.62789-24.59282-32.62789-52.57277l.00577-73.48994h511.42039l-.00866,75.58691c.03462,20.59455-8.2053,41.88678-31.87488,54.30148Z" transform="translate(5.34202 4.34452)"/><path class="cls-1" d="M5298.42791,424.62389h908.80275a29.261,29.261,0,0,1,29.261,29.261v51.90631a29.261,29.261,0,0,1-29.261,29.261H5298.43027a29.261,29.261,0,0,1-29.261-29.261V453.88248A29.25859,29.25859,0,0,1,5298.42791,424.62389Z"/><path class="cls-1" d="M6285.32072,798.88584H5209.65905a29.262,29.262,0,0,0-29.26095,29.261V880.056a29.26011,29.26011,0,0,0,29.26095,29.261H5455.5324l-198.29185,372.037c-53.95475,101.23042,19.40248,223.45542,134.1151,223.45542h712.26558c114.71262,0,188.06985-122.22788,134.1151-223.45542L6151.246,1119.08293a28.20965,28.20965,0,0,0-24.89576-14.94207h-99.61764a28.21344,28.21344,0,0,0-24.89864,41.48235l97.5,182.92566c15.89416,29.82355-5.71832,65.82993-39.51181,65.82993H5432.74568c-33.79349,0-55.406-36.00638-39.51181-65.827l223.44438-419.23482h668.63958a29.26319,29.26319,0,0,0,29.26384-29.26384V828.1468A29.262,29.262,0,0,0,6285.32072,798.88584Z" transform="translate(5.34202 4.34452)"/><line class="cls-1" x1="6587.81922" y1="770.83905" x2="6587.81922" y2="770.83905"/><line class="cls-1" x1="7122.37255" y1="770.83905" x2="7122.37255" y2="770.83905"/><line class="cls-1" x1="6905.18312" y1="1079.55622" x2="6905.18312" y2="1079.55622"/><line class="cls-1" x1="6905.18312" y1="1189.98731" x2="6905.18312" y2="1189.98731"/><line class="cls-1" x1="7122.37255" y1="1189.98731" x2="7122.37255" y2="1189.98731"/><line class="cls-1" x1="6587.81922" y1="1507.35121" x2="6587.81922" y2="1507.35121"/><line class="cls-1" x1="7180.07508" y1="1507.35121" x2="7180.07508" y2="1507.35121"/><path class="cls-1" d="M7015.11344,1392.5756h-273.158a49.04656,49.04656,0,0,1-49.04715-49.04715V926.11414a49.19063,49.19063,0,0,1,49.18852-49.1914h215.3141a49.19063,49.19063,0,0,1,49.18852,49.1914v99.90853a49.18827,49.18827,0,0,1-49.18852,49.189h-26.699a30.87066,30.87066,0,0,0-30.87085,30.87085v48.65189a30.90821,30.90821,0,0,0,30.90547,30.90836h89.63222a96.65373,96.65373,0,0,0,96.65174-96.65173V863.06836a96.5743,96.5743,0,0,0-96.57384-96.57383H6679.12893a96.65,96.65,0,0,0-96.65173,96.65173V1406.355a96.65187,96.65187,0,0,0,96.65173,96.65173h399.03029a96.57676,96.57676,0,0,0,96.57383-96.57672v-89.74185a30.87065,30.87065,0,0,0-30.87085-30.87085h-48.68939a30.87065,30.87065,0,0,0-30.87085,30.87085v26.69845A49.18827,49.18827,0,0,1,7015.11344,1392.5756Z" transform="translate(5.34202 4.34452)"/><line class="cls-1" x1="7180.07508" y1="1290.16178" x2="7180.07508" y2="1290.16178"/><line class="cls-1" x1="7069.64398" y1="1290.16178" x2="7069.64398" y2="1290.16178"/><line class="cls-1" x1="7309.10082" y1="511.17768" x2="7309.10082" y2="511.17768"/><line class="cls-1" x1="7309.10082" y1="1218.83858" x2="7309.10082" y2="1218.83858"/><rect class="cls-1" x="7309.10082" y="511.17768" width="110.4311" height="707.6609" rx="30.87085"/><line class="cls-1" x1="7419.53191" y1="1218.83858" x2="7419.53191" y2="1218.83858"/><line class="cls-1" x1="7419.53191" y1="511.17768" x2="7419.53191" y2="511.17768"/><line class="cls-1" x1="7539.91093" y1="395.77263" x2="7539.91093" y2="395.77263"/><path class="cls-1" d="M7534.5689,422.299v921.22949a49.04656,49.04656,0,0,1-49.04715,49.04715H7372.12763a30.8688,30.8688,0,0,0-30.87085,30.87085v48.68939a30.87065,30.87065,0,0,0,30.87085,30.87085h176.22064A96.65372,96.65372,0,0,0,7645,1406.355V422.299a30.87066,30.87066,0,0,0-30.87085-30.87085h-48.6894A30.87066,30.87066,0,0,0,7534.5689,422.299Z" transform="translate(5.34202 4.34452)"/><line class="cls-1" x1="7650.34202" y1="1507.35121" x2="7650.34202" y2="1507.35121"/><line class="cls-1" x1="7650.34202" y1="395.77263" x2="7650.34202" y2="395.77263"/><line class="cls-1" x1="7346.5988" y1="1507.35121" x2="7346.5988" y2="1507.35121"/><line class="cls-1" x1="7346.5988" y1="1396.92011" x2="7346.5988" y2="1396.92011"/><path class="cls-1" d="M6987.81149,393.07263h-268.0167a132.1001,132.1001,0,0,0-116.562,69.93835l-92.94434,174.2674a29.01,29.01,0,0,0,25.59684,42.66236h61.06947a86.83193,86.83193,0,0,0,76.64915-46.0356l52.96227-99.508a61.37746,61.37746,0,0,1,54.17979-32.54082h146.11434a61.37745,61.37745,0,0,1,54.17978,32.54082l52.96227,99.508a86.83194,86.83194,0,0,0,76.64915,46.0356H7171.721a29.01,29.01,0,0,0,25.59684-42.66236L7104.37348,463.011A132.10008,132.10008,0,0,0,6987.81149,393.07263Z" transform="translate(5.34202 4.34452)"/><path class="cls-1" d="M7076.47142,1708.11321v190.08317a62.88838,62.88838,0,0,1-62.8871,62.89047h-35.19854a62.88838,62.88838,0,0,1-62.8871-62.89047V1708.11321a22.03912,22.03912,0,0,0-22.03948-22.03948h-14.40255a22.03912,22.03912,0,0,0-22.03948,22.03948v176.56973a121.398,121.398,0,0,0,121.40034,121.39746h35.13507a121.398,121.398,0,0,0,121.40035-121.39746V1708.11321a22.03912,22.03912,0,0,0-22.03948-22.03948H7098.5109A22.03912,22.03912,0,0,0,7076.47142,1708.11321Z" transform="translate(5.34202 4.34452)"/></svg>